<mxfile host="app.diagrams.net" agent="Mozilla/5.0 (Windows NT 10.0; Win64; x64) AppleWebKit/537.36 (KHTML, like Gecko) Chrome/135.0.0.0 Safari/537.36" version="26.2.14">
  <diagram name="Page-1" id="c4acf3e9-155e-7222-9cf6-157b1a14988f">
    <mxGraphModel dx="1364" dy="886" grid="1" gridSize="10" guides="1" tooltips="1" connect="1" arrows="1" fold="1" page="1" pageScale="1" pageWidth="850" pageHeight="1100" background="none" math="0" shadow="0">
      <root>
        <mxCell id="0" />
        <mxCell id="1" parent="0" />
        <mxCell id="U1-uT79BPtRjiYRfhZJT-1" value="&lt;p style=&quot;margin:0px;margin-top:4px;text-align:center;&quot;&gt;&lt;span style=&quot;background-color: transparent; text-align: left; color: rgb(0, 64, 133);&quot;&gt;IConfigureNamedOptions&lt;/span&gt;&lt;span style=&quot;background-color: transparent; color: light-dark(rgb(0, 0, 0), rgb(255, 255, 255)); text-align: left;&quot;&gt;&amp;lt;&lt;/span&gt;&lt;span style=&quot;background-color: transparent; text-align: left; color: rgb(255, 20, 147); font-weight: bold;&quot;&gt;in&lt;/span&gt;&lt;span style=&quot;background-color: transparent; color: light-dark(rgb(0, 0, 0), rgb(255, 255, 255)); text-align: left;&quot;&gt; TOptions&amp;gt;&lt;/span&gt;&lt;/p&gt;&lt;hr size=&quot;1&quot; style=&quot;border-style:solid;&quot;&gt;&lt;p style=&quot;margin:0px;margin-left:4px;&quot;&gt;&lt;span style=&quot;color: rgb(25, 25, 112); font-weight: bold; background-color: transparent;&quot;&gt;Configure(&lt;/span&gt;&lt;/p&gt;&lt;p style=&quot;margin:0px;margin-left:4px;&quot;&gt;&lt;span style=&quot;color: rgb(25, 25, 112); font-weight: bold; background-color: transparent;&quot;&gt;&lt;span style=&quot;white-space: pre;&quot;&gt;&#x9;&lt;/span&gt;&lt;/span&gt;&lt;span style=&quot;background-color: transparent; color: rgb(255, 0, 0);&quot;&gt;string&lt;/span&gt;&lt;span style=&quot;background-color: transparent; color: light-dark(rgb(0, 0, 0), rgb(255, 255, 255));&quot;&gt;? name,&amp;nbsp;&lt;/span&gt;&lt;/p&gt;&lt;p style=&quot;margin:0px;margin-left:4px;&quot;&gt;&lt;span style=&quot;background-color: transparent; color: light-dark(rgb(0, 0, 0), rgb(255, 255, 255));&quot;&gt;&lt;span style=&quot;white-space: pre;&quot;&gt;&#x9;&lt;/span&gt;TOptions options)&lt;/span&gt;&lt;/p&gt;&lt;p style=&quot;margin:0px;margin-left:4px;&quot;&gt;&lt;span style=&quot;background-color: transparent; color: light-dark(rgb(0, 0, 0), rgb(255, 255, 255));&quot;&gt;: void&lt;/span&gt;&lt;/p&gt;" style="verticalAlign=top;align=left;overflow=fill;html=1;whiteSpace=wrap;" parent="1" vertex="1">
          <mxGeometry x="30" y="30" width="220" height="100" as="geometry" />
        </mxCell>
        <mxCell id="h_6TPCCMnjTKN2K01A-q-1" value="&lt;p style=&quot;margin:0px;margin-top:4px;text-align:center;&quot;&gt;&lt;span style=&quot;background-color: transparent; text-align: left; color: rgb(0, 64, 133);&quot;&gt;IConfigureOptions&lt;/span&gt;&lt;span style=&quot;background-color: transparent; color: light-dark(rgb(0, 0, 0), rgb(255, 255, 255)); text-align: left;&quot;&gt;&amp;lt;&lt;/span&gt;&lt;span style=&quot;background-color: transparent; text-align: left; color: rgb(255, 20, 147); font-weight: bold;&quot;&gt;in&lt;/span&gt;&lt;span style=&quot;background-color: transparent; color: light-dark(rgb(0, 0, 0), rgb(255, 255, 255)); text-align: left;&quot;&gt; TOptions&amp;gt;&lt;/span&gt;&lt;/p&gt;&lt;hr size=&quot;1&quot; style=&quot;border-style:solid;&quot;&gt;&lt;p style=&quot;margin:0px;margin-left:4px;&quot;&gt;&lt;span style=&quot;color: rgb(25, 25, 112); font-weight: bold; background-color: transparent;&quot;&gt;Configure(&lt;/span&gt;&lt;/p&gt;&lt;p style=&quot;margin:0px;margin-left:4px;&quot;&gt;&lt;span style=&quot;background-color: transparent; color: light-dark(rgb(0, 0, 0), rgb(255, 255, 255));&quot;&gt;&lt;span style=&quot;white-space: pre;&quot;&gt;&#x9;&lt;/span&gt;TOptions options)&lt;/span&gt;&lt;/p&gt;&lt;p style=&quot;margin:0px;margin-left:4px;&quot;&gt;&lt;span style=&quot;background-color: transparent; color: light-dark(rgb(0, 0, 0), rgb(255, 255, 255));&quot;&gt;: void&lt;/span&gt;&lt;/p&gt;" style="verticalAlign=top;align=left;overflow=fill;html=1;whiteSpace=wrap;" vertex="1" parent="1">
          <mxGeometry x="270" y="30" width="220" height="100" as="geometry" />
        </mxCell>
        <mxCell id="h_6TPCCMnjTKN2K01A-q-2" value="&lt;p style=&quot;margin:0px;margin-top:4px;text-align:center;&quot;&gt;&lt;span style=&quot;background-color: transparent; text-align: left; color: rgb(0, 64, 133);&quot;&gt;IOptions&lt;/span&gt;&lt;span style=&quot;background-color: transparent; color: light-dark(rgb(0, 0, 0), rgb(255, 255, 255)); text-align: left;&quot;&gt;&amp;lt;&lt;/span&gt;&lt;span style=&quot;background-color: transparent; text-align: left; color: rgb(255, 20, 147); font-weight: bold;&quot;&gt;in&lt;/span&gt;&lt;span style=&quot;background-color: transparent; color: light-dark(rgb(0, 0, 0), rgb(255, 255, 255)); text-align: left;&quot;&gt; TOptions&amp;gt;&lt;/span&gt;&lt;/p&gt;&lt;hr size=&quot;1&quot; style=&quot;border-style:solid;&quot;&gt;&lt;p style=&quot;margin:0px;margin-left:4px;&quot;&gt;Value:&amp;nbsp;TOptions&lt;/p&gt;" style="verticalAlign=top;align=left;overflow=fill;html=1;whiteSpace=wrap;" vertex="1" parent="1">
          <mxGeometry x="520" y="30" width="220" height="100" as="geometry" />
        </mxCell>
        <mxCell id="h_6TPCCMnjTKN2K01A-q-3" value="&lt;p style=&quot;margin:0px;margin-top:4px;text-align:center;&quot;&gt;&lt;span style=&quot;color: rgb(0, 64, 133);&quot;&gt;IOptionsChangeTokenSource&lt;/span&gt;&lt;span style=&quot;background-color: transparent; color: light-dark(rgb(0, 0, 0), rgb(255, 255, 255)); text-align: left;&quot;&gt;&amp;lt;&lt;/span&gt;&lt;span style=&quot;background-color: transparent; text-align: left; color: rgb(255, 20, 147); font-weight: bold;&quot;&gt;in&lt;/span&gt;&lt;span style=&quot;background-color: transparent; color: light-dark(rgb(0, 0, 0), rgb(255, 255, 255)); text-align: left;&quot;&gt; TOptions&amp;gt;&lt;/span&gt;&lt;/p&gt;&lt;hr size=&quot;1&quot; style=&quot;border-style:solid;&quot;&gt;&lt;p style=&quot;margin:0px;margin-left:4px;&quot;&gt;&lt;span style=&quot;color: rgb(25, 25, 112); font-weight: bold; background-color: transparent;&quot;&gt;&lt;span style=&quot;font-weight: normal;&quot;&gt;Name:&amp;nbsp;&lt;/span&gt;&lt;/span&gt;&lt;span style=&quot;background-color: transparent; color: rgb(255, 0, 0);&quot;&gt;string&lt;/span&gt;&lt;span style=&quot;background-color: transparent; color: light-dark(rgb(0, 0, 0), rgb(255, 255, 255));&quot;&gt;?&lt;/span&gt;&lt;/p&gt;&lt;p style=&quot;margin:0px;margin-left:4px;&quot;&gt;&lt;span style=&quot;color: rgb(25, 25, 112); font-weight: bold; background-color: transparent;&quot;&gt;&lt;br&gt;&lt;/span&gt;&lt;/p&gt;&lt;p style=&quot;margin:0px;margin-left:4px;&quot;&gt;&lt;span style=&quot;color: rgb(25, 25, 112); font-weight: bold;&quot;&gt;GetChangeToken&lt;/span&gt;(&lt;/p&gt;&lt;p style=&quot;margin:0px;margin-left:4px;&quot;&gt;):&amp;nbsp;&lt;span style=&quot;color: rgb(0, 64, 133); background-color: transparent;&quot;&gt;IChangeToken&lt;/span&gt;&lt;/p&gt;" style="verticalAlign=top;align=left;overflow=fill;html=1;whiteSpace=wrap;" vertex="1" parent="1">
          <mxGeometry x="760" y="30" width="260" height="100" as="geometry" />
        </mxCell>
        <mxCell id="h_6TPCCMnjTKN2K01A-q-4" value="&lt;p style=&quot;margin:0px;margin-top:4px;text-align:center;&quot;&gt;&lt;span style=&quot;color: rgb(0, 64, 133); background-color: transparent; text-align: left;&quot;&gt;IOptionsFactory&lt;/span&gt;&lt;span style=&quot;background-color: transparent; color: light-dark(rgb(0, 0, 0), rgb(255, 255, 255)); text-align: left;&quot;&gt;&amp;lt;&lt;/span&gt;&lt;span style=&quot;background-color: transparent; text-align: left; color: rgb(255, 20, 147); font-weight: bold;&quot;&gt;in&lt;/span&gt;&lt;span style=&quot;background-color: transparent; color: light-dark(rgb(0, 0, 0), rgb(255, 255, 255)); text-align: left;&quot;&gt; TOptions&amp;gt;&lt;/span&gt;&lt;/p&gt;&lt;hr size=&quot;1&quot; style=&quot;border-style:solid;&quot;&gt;&lt;p style=&quot;margin:0px;margin-left:4px;&quot;&gt;&lt;span style=&quot;color: rgb(25, 25, 112); font-weight: bold;&quot;&gt;Create&lt;/span&gt;(&lt;/p&gt;&lt;p style=&quot;margin:0px;margin-left:4px;&quot;&gt;&lt;span style=&quot;color: rgb(255, 0, 0);&quot;&gt;&lt;span style=&quot;white-space: pre;&quot;&gt;&#x9;&lt;/span&gt;string&lt;/span&gt; name&lt;/p&gt;&lt;p style=&quot;margin:0px;margin-left:4px;&quot;&gt;):&amp;nbsp;TOptions&lt;/p&gt;" style="verticalAlign=top;align=left;overflow=fill;html=1;whiteSpace=wrap;" vertex="1" parent="1">
          <mxGeometry x="1040" y="30" width="210" height="100" as="geometry" />
        </mxCell>
        <mxCell id="h_6TPCCMnjTKN2K01A-q-5" value="&lt;p style=&quot;margin:0px;margin-top:4px;text-align:center;&quot;&gt;&lt;span style=&quot;color: rgb(0, 64, 133);&quot;&gt;IOptionsMonitor&lt;/span&gt;&lt;span style=&quot;background-color: transparent; color: light-dark(rgb(0, 0, 0), rgb(255, 255, 255)); text-align: left;&quot;&gt;&amp;lt;&lt;/span&gt;&lt;span style=&quot;background-color: transparent; text-align: left; color: rgb(255, 20, 147); font-weight: bold;&quot;&gt;in&lt;/span&gt;&lt;span style=&quot;background-color: transparent; color: light-dark(rgb(0, 0, 0), rgb(255, 255, 255)); text-align: left;&quot;&gt; TOptions&amp;gt;&lt;/span&gt;&lt;/p&gt;&lt;hr size=&quot;1&quot; style=&quot;border-style:solid;&quot;&gt;&lt;p style=&quot;margin:0px;margin-left:4px;&quot;&gt;CurrentValue:&amp;nbsp;TOptions&lt;/p&gt;&lt;p style=&quot;margin:0px;margin-left:4px;&quot;&gt;&lt;br&gt;&lt;/p&gt;&lt;p style=&quot;margin:0px;margin-left:4px;&quot;&gt;&lt;span style=&quot;color: rgb(25, 25, 112); font-weight: bold;&quot;&gt;Get&lt;/span&gt;(&lt;/p&gt;&lt;p style=&quot;margin:0px;margin-left:4px;&quot;&gt;&lt;span style=&quot;color: rgb(255, 0, 0);&quot;&gt;&lt;span style=&quot;white-space: pre;&quot;&gt;&#x9;&lt;/span&gt;string&lt;/span&gt;? name&lt;/p&gt;&lt;p style=&quot;margin:0px;margin-left:4px;&quot;&gt;):&amp;nbsp;TOptions&lt;/p&gt;&lt;p style=&quot;margin:0px;margin-left:4px;&quot;&gt;&lt;br&gt;&lt;/p&gt;&lt;p style=&quot;margin:0px;margin-left:4px;&quot;&gt;&lt;span style=&quot;color: rgb(25, 25, 112); font-weight: bold;&quot;&gt;OnChange&lt;/span&gt;(&lt;/p&gt;&lt;p style=&quot;margin:0px;margin-left:4px;&quot;&gt;&lt;span style=&quot;color: rgb(0, 64, 133);&quot;&gt;&lt;span style=&quot;white-space: pre;&quot;&gt;&#x9;&lt;/span&gt;Action&lt;/span&gt;&amp;lt;TOptions, &lt;span style=&quot;color: rgb(255, 0, 0);&quot;&gt;string&lt;/span&gt;?&amp;gt; listener&lt;/p&gt;&lt;p style=&quot;margin:0px;margin-left:4px;&quot;&gt;):&amp;nbsp;&lt;span style=&quot;background-color: transparent; color: rgb(0, 64, 133);&quot;&gt;IDisposable&lt;/span&gt;&lt;span style=&quot;background-color: transparent; color: light-dark(rgb(0, 0, 0), rgb(255, 255, 255));&quot;&gt;?&lt;/span&gt;&lt;/p&gt;" style="verticalAlign=top;align=left;overflow=fill;html=1;whiteSpace=wrap;" vertex="1" parent="1">
          <mxGeometry x="1275" y="30" width="240" height="170" as="geometry" />
        </mxCell>
        <mxCell id="h_6TPCCMnjTKN2K01A-q-6" value="&lt;p style=&quot;margin:0px;margin-top:4px;text-align:center;&quot;&gt;&lt;span style=&quot;color: rgb(0, 64, 133);&quot;&gt;IOptionsMonitorCache&lt;/span&gt;&lt;span style=&quot;background-color: transparent; color: light-dark(rgb(0, 0, 0), rgb(255, 255, 255)); text-align: left;&quot;&gt;&amp;lt;&lt;/span&gt;&lt;span style=&quot;background-color: transparent; color: light-dark(rgb(0, 0, 0), rgb(255, 255, 255)); text-align: left;&quot;&gt;TOptions&amp;gt;&lt;/span&gt;&lt;/p&gt;&lt;hr size=&quot;1&quot; style=&quot;border-style:solid;&quot;&gt;&lt;p style=&quot;margin:0px;margin-left:4px;&quot;&gt;&lt;span style=&quot;color: rgb(25, 25, 112); font-weight: bold;&quot;&gt;GetOrAdd&lt;/span&gt;(&lt;/p&gt;&lt;p style=&quot;margin:0px;margin-left:4px;&quot;&gt;&lt;span style=&quot;color: rgb(255, 0, 0);&quot;&gt;&lt;span style=&quot;white-space: pre;&quot;&gt;&#x9;&lt;/span&gt;string&lt;/span&gt;? name,&amp;nbsp;&lt;/p&gt;&lt;p style=&quot;margin:0px;margin-left:4px;&quot;&gt;&lt;span style=&quot;color: rgb(0, 64, 133);&quot;&gt;&lt;span style=&quot;white-space: pre;&quot;&gt;&#x9;&lt;/span&gt;Func&lt;/span&gt;&amp;lt;TOptions&amp;gt; createOptions&lt;/p&gt;&lt;p style=&quot;margin:0px;margin-left:4px;&quot;&gt;): TOptions&lt;/p&gt;&lt;p style=&quot;margin:0px;margin-left:4px;&quot;&gt;&lt;br&gt;&lt;/p&gt;&lt;p style=&quot;margin:0px;margin-left:4px;&quot;&gt;&lt;span style=&quot;color: rgb(25, 25, 112); font-weight: bold;&quot;&gt;TryAdd&lt;/span&gt;(&lt;/p&gt;&lt;p style=&quot;margin:0px;margin-left:4px;&quot;&gt;&lt;span style=&quot;color: rgb(255, 0, 0);&quot;&gt;&lt;span style=&quot;white-space: pre;&quot;&gt;&#x9;&lt;/span&gt;string&lt;/span&gt;? name,&amp;nbsp;&lt;/p&gt;&lt;p style=&quot;margin:0px;margin-left:4px;&quot;&gt;&lt;span style=&quot;white-space: pre;&quot;&gt;&#x9;&lt;/span&gt;TOptions options&lt;/p&gt;&lt;p style=&quot;margin:0px;margin-left:4px;&quot;&gt;):&amp;nbsp;&lt;span style=&quot;color: rgb(255, 0, 0); font-weight: bold; background-color: transparent;&quot;&gt;bool&lt;/span&gt;&lt;/p&gt;&lt;p style=&quot;margin:0px;margin-left:4px;&quot;&gt;&lt;span style=&quot;color: rgb(255, 0, 0); font-weight: bold; background-color: transparent;&quot;&gt;&lt;br&gt;&lt;/span&gt;&lt;/p&gt;&lt;p style=&quot;margin:0px;margin-left:4px;&quot;&gt;&lt;span style=&quot;color: rgb(25, 25, 112); font-weight: bold;&quot;&gt;TryRemove&lt;/span&gt;(&lt;/p&gt;&lt;p style=&quot;margin:0px;margin-left:4px;&quot;&gt;&lt;span style=&quot;color: rgb(255, 0, 0);&quot;&gt;&lt;span style=&quot;white-space: pre;&quot;&gt;&#x9;&lt;/span&gt;string&lt;/span&gt;? name&lt;/p&gt;&lt;p style=&quot;margin:0px;margin-left:4px;&quot;&gt;):&amp;nbsp;&lt;span style=&quot;color: rgb(255, 0, 0); font-weight: 700; background-color: transparent;&quot;&gt;bool&lt;/span&gt;&lt;/p&gt;&lt;p style=&quot;margin:0px;margin-left:4px;&quot;&gt;&lt;span style=&quot;color: rgb(255, 0, 0); font-weight: 700; background-color: transparent;&quot;&gt;&lt;br&gt;&lt;/span&gt;&lt;/p&gt;&lt;p style=&quot;margin:0px;margin-left:4px;&quot;&gt;&lt;span style=&quot;color: rgb(25, 25, 112); font-weight: bold;&quot;&gt;Clear&lt;/span&gt;(&lt;/p&gt;&lt;p style=&quot;margin:0px;margin-left:4px;&quot;&gt;):&amp;nbsp;&lt;span style=&quot;color: rgb(255, 0, 0); font-weight: 700; background-color: transparent;&quot;&gt;&lt;/span&gt;&lt;span style=&quot;color: rgb(255, 0, 0); background-color: transparent;&quot;&gt;void&lt;/span&gt;&lt;/p&gt;" style="verticalAlign=top;align=left;overflow=fill;html=1;whiteSpace=wrap;" vertex="1" parent="1">
          <mxGeometry x="1540" y="30" width="240" height="270" as="geometry" />
        </mxCell>
        <mxCell id="h_6TPCCMnjTKN2K01A-q-7" value="&lt;p style=&quot;margin:0px;margin-top:4px;text-align:center;&quot;&gt;&lt;span style=&quot;color: rgb(0, 64, 133); background-color: transparent; text-align: left;&quot;&gt;IOptionsSnapshot&lt;/span&gt;&lt;span style=&quot;background-color: transparent; color: light-dark(rgb(0, 0, 0), rgb(255, 255, 255)); text-align: left;&quot;&gt;&amp;lt;&lt;/span&gt;&lt;span style=&quot;background-color: transparent; text-align: left; color: rgb(255, 20, 147); font-weight: bold;&quot;&gt;in&lt;/span&gt;&lt;span style=&quot;background-color: transparent; color: light-dark(rgb(0, 0, 0), rgb(255, 255, 255)); text-align: left;&quot;&gt; TOptions&amp;gt;&lt;/span&gt;&lt;/p&gt;&lt;hr size=&quot;1&quot; style=&quot;border-style:solid;&quot;&gt;&lt;p style=&quot;margin:0px;margin-left:4px;&quot;&gt;&lt;span style=&quot;color: rgb(25, 25, 112); font-weight: bold;&quot;&gt;Get&lt;/span&gt;(&lt;/p&gt;&lt;p style=&quot;margin:0px;margin-left:4px;&quot;&gt;&lt;span style=&quot;color: rgb(255, 0, 0);&quot;&gt;&lt;span style=&quot;white-space: pre;&quot;&gt;&#x9;&lt;/span&gt;string&lt;/span&gt;? name&lt;/p&gt;&lt;p style=&quot;margin:0px;margin-left:4px;&quot;&gt;):&amp;nbsp;TOptions&lt;/p&gt;" style="verticalAlign=top;align=left;overflow=fill;html=1;whiteSpace=wrap;" vertex="1" parent="1">
          <mxGeometry x="1800" y="30" width="210" height="90" as="geometry" />
        </mxCell>
        <mxCell id="h_6TPCCMnjTKN2K01A-q-8" value="&lt;p style=&quot;margin:0px;margin-top:4px;text-align:center;&quot;&gt;&lt;span style=&quot;color: rgb(0, 64, 133); background-color: transparent; text-align: left;&quot;&gt;I&lt;/span&gt;&lt;span style=&quot;color: rgb(0, 64, 133);&quot;&gt;PostConfigureOptions&lt;/span&gt;&lt;span style=&quot;background-color: transparent; color: light-dark(rgb(0, 0, 0), rgb(255, 255, 255)); text-align: left;&quot;&gt;&amp;lt;&lt;/span&gt;&lt;span style=&quot;background-color: transparent; text-align: left; color: rgb(255, 20, 147); font-weight: bold;&quot;&gt;in&lt;/span&gt;&lt;span style=&quot;background-color: transparent; color: light-dark(rgb(0, 0, 0), rgb(255, 255, 255)); text-align: left;&quot;&gt; TOptions&amp;gt;&lt;/span&gt;&lt;/p&gt;&lt;hr size=&quot;1&quot; style=&quot;border-style:solid;&quot;&gt;&lt;p style=&quot;margin:0px;margin-left:4px;&quot;&gt;&lt;span style=&quot;color: rgb(25, 25, 112); font-weight: bold;&quot;&gt;PostConfigure&lt;/span&gt;(&lt;/p&gt;&lt;p style=&quot;margin:0px;margin-left:4px;&quot;&gt;&lt;span style=&quot;color: rgb(255, 0, 0);&quot;&gt;&lt;span style=&quot;white-space: pre;&quot;&gt;&#x9;&lt;/span&gt;string&lt;/span&gt;? name,&amp;nbsp;&lt;/p&gt;&lt;p style=&quot;margin:0px;margin-left:4px;&quot;&gt;&lt;span style=&quot;white-space: pre;&quot;&gt;&#x9;&lt;/span&gt;TOptions options&lt;/p&gt;&lt;p style=&quot;margin:0px;margin-left:4px;&quot;&gt;):&amp;nbsp;&lt;span style=&quot;color: rgb(255, 0, 0); background-color: transparent;&quot;&gt;void&lt;/span&gt;&lt;span style=&quot;background-color: transparent; color: light-dark(rgb(0, 0, 0), rgb(255, 255, 255));&quot;&gt;&amp;nbsp;&lt;/span&gt;&lt;/p&gt;" style="verticalAlign=top;align=left;overflow=fill;html=1;whiteSpace=wrap;" vertex="1" parent="1">
          <mxGeometry x="2030" y="30" width="210" height="100" as="geometry" />
        </mxCell>
        <mxCell id="h_6TPCCMnjTKN2K01A-q-9" value="&lt;p style=&quot;margin:0px;margin-top:4px;text-align:center;&quot;&gt;&lt;span style=&quot;color: rgb(0, 64, 133); background-color: transparent; text-align: left;&quot;&gt;IStartupValidator&lt;/span&gt;&lt;/p&gt;&lt;hr size=&quot;1&quot; style=&quot;border-style:solid;&quot;&gt;&lt;p style=&quot;margin:0px;margin-left:4px;&quot;&gt;&lt;span style=&quot;color: rgb(25, 25, 112); font-weight: bold;&quot;&gt;Validate&lt;/span&gt;(&lt;/p&gt;&lt;p style=&quot;margin:0px;margin-left:4px;&quot;&gt;):&amp;nbsp;&lt;span style=&quot;color: rgb(255, 0, 0); background-color: transparent;&quot;&gt;void&lt;/span&gt;&lt;/p&gt;" style="verticalAlign=top;align=left;overflow=fill;html=1;whiteSpace=wrap;" vertex="1" parent="1">
          <mxGeometry x="2260" y="30" width="140" height="70" as="geometry" />
        </mxCell>
        <mxCell id="h_6TPCCMnjTKN2K01A-q-10" value="&lt;p style=&quot;margin:0px;margin-top:4px;text-align:center;&quot;&gt;&lt;span style=&quot;background-color: transparent; text-align: left; color: rgb(0, 64, 133);&quot;&gt;IValidateOptions&lt;/span&gt;&lt;span style=&quot;background-color: transparent; color: light-dark(rgb(0, 0, 0), rgb(255, 255, 255)); text-align: left;&quot;&gt;&amp;lt;TOptions&amp;gt;&lt;/span&gt;&lt;/p&gt;&lt;hr size=&quot;1&quot; style=&quot;border-style:solid;&quot;&gt;&lt;p style=&quot;margin:0px;margin-left:4px;&quot;&gt;&lt;span style=&quot;color: rgb(25, 25, 112); font-weight: bold;&quot;&gt;Validate&lt;/span&gt;(&lt;/p&gt;&lt;p style=&quot;margin:0px;margin-left:4px;&quot;&gt;&lt;span style=&quot;color: rgb(255, 0, 0);&quot;&gt;&lt;span style=&quot;white-space: pre;&quot;&gt;&#x9;&lt;/span&gt;string&lt;/span&gt;? name,&amp;nbsp;&lt;/p&gt;&lt;p style=&quot;margin:0px;margin-left:4px;&quot;&gt;&lt;span style=&quot;white-space: pre;&quot;&gt;&#x9;&lt;/span&gt;TOptions options&lt;/p&gt;&lt;p style=&quot;margin:0px;margin-left:4px;&quot;&gt;):&amp;nbsp;&lt;span style=&quot;color: rgb(0, 64, 133); background-color: transparent;&quot;&gt;ValidateOptionsResult&lt;/span&gt;&lt;/p&gt;" style="verticalAlign=top;align=left;overflow=fill;html=1;whiteSpace=wrap;" vertex="1" parent="1">
          <mxGeometry x="2420" y="30" width="190" height="100" as="geometry" />
        </mxCell>
        <mxCell id="h_6TPCCMnjTKN2K01A-q-11" value="&lt;p style=&quot;margin:0px;margin-top:4px;text-align:center;&quot;&gt;&lt;span style=&quot;color: rgb(0, 64, 133); background-color: transparent; text-align: left;&quot;&gt;Options&lt;/span&gt;&lt;/p&gt;&lt;hr size=&quot;1&quot; style=&quot;border-style:solid;&quot;&gt;&lt;p style=&quot;margin:0px;margin-left:4px;&quot;&gt;&lt;span style=&quot;font-style: italic;&quot;&gt;DefaultName:&amp;nbsp;&lt;/span&gt;&lt;span style=&quot;color: rgb(255, 0, 0); background-color: transparent;&quot;&gt;string&lt;/span&gt;&lt;/p&gt;&lt;p style=&quot;margin:0px;margin-left:4px;&quot;&gt;&lt;span style=&quot;color: rgb(255, 0, 0); background-color: transparent;&quot;&gt;&lt;br&gt;&lt;/span&gt;&lt;/p&gt;&lt;p style=&quot;margin:0px;margin-left:4px;&quot;&gt;&lt;span style=&quot;color: rgb(25, 25, 112); font-weight: bold;&quot;&gt;Create&amp;lt;&lt;/span&gt;&lt;span style=&quot;background-color: transparent; color: light-dark(rgb(0, 0, 0), rgb(255, 255, 255));&quot;&gt;TOptions&lt;/span&gt;&lt;span style=&quot;color: rgb(25, 25, 112); font-weight: bold; background-color: transparent;&quot;&gt;&amp;gt;(&lt;/span&gt;&lt;/p&gt;&lt;p style=&quot;margin:0px;margin-left:4px;&quot;&gt;&lt;span style=&quot;color: rgb(25, 25, 112); font-weight: bold; background-color: transparent;&quot;&gt;)&lt;/span&gt;&lt;span style=&quot;background-color: transparent; color: rgb(25, 25, 112); font-weight: bold;&quot;&gt;:&amp;nbsp;&lt;/span&gt;&lt;span style=&quot;background-color: transparent; color: rgb(0, 64, 133);&quot;&gt;IOptions&lt;/span&gt;&lt;span style=&quot;background-color: transparent; color: light-dark(rgb(0, 0, 0), rgb(255, 255, 255));&quot;&gt;&amp;lt;TOptions&amp;gt;&lt;/span&gt;&lt;/p&gt;&lt;p style=&quot;margin:0px;margin-left:4px;&quot;&gt;&lt;span style=&quot;background-color: transparent; color: light-dark(rgb(0, 0, 0), rgb(255, 255, 255));&quot;&gt;&lt;br&gt;&lt;/span&gt;&lt;/p&gt;&lt;p style=&quot;margin:0px;margin-left:4px;&quot;&gt;&lt;span style=&quot;background-color: transparent; color: light-dark(rgb(0, 0, 0), rgb(255, 255, 255));&quot;&gt;&lt;br&gt;&lt;/span&gt;&lt;/p&gt;" style="verticalAlign=top;align=left;overflow=fill;html=1;whiteSpace=wrap;" vertex="1" parent="1">
          <mxGeometry x="1040" y="400" width="250" height="100" as="geometry" />
        </mxCell>
        <mxCell id="h_6TPCCMnjTKN2K01A-q-12" value="&lt;p style=&quot;margin:0px;margin-top:4px;text-align:center;&quot;&gt;&lt;span style=&quot;color: rgb(0, 64, 133);&quot;&gt;OptionsBuilder&lt;/span&gt;&amp;lt;TOptions&amp;gt;&lt;/p&gt;&lt;hr size=&quot;1&quot; style=&quot;border-style:solid;&quot;&gt;&lt;p style=&quot;margin:0px;margin-left:4px;&quot;&gt;&lt;span style=&quot;background-color: transparent; color: light-dark(rgb(0, 0, 0), rgb(255, 255, 255));&quot;&gt;Name&lt;/span&gt;&lt;span style=&quot;font-style: italic;&quot;&gt;:&amp;nbsp;&lt;/span&gt;&lt;span style=&quot;color: rgb(255, 0, 0); background-color: transparent;&quot;&gt;string&lt;/span&gt;&lt;/p&gt;&lt;p style=&quot;margin:0px;margin-left:4px;&quot;&gt;&lt;span style=&quot;color: rgb(255, 0, 0); background-color: transparent;&quot;&gt;Services:&amp;nbsp;&lt;/span&gt;&lt;span style=&quot;color: rgb(0, 64, 133); background-color: transparent;&quot;&gt;IServiceCollection&lt;/span&gt;&lt;/p&gt;&lt;p style=&quot;margin:0px;margin-left:4px;&quot;&gt;&lt;span style=&quot;color: rgb(255, 0, 0); background-color: transparent;&quot;&gt;&lt;br&gt;&lt;/span&gt;&lt;/p&gt;&lt;p style=&quot;margin:0px;margin-left:4px;&quot;&gt;&lt;span style=&quot;color: rgb(25, 25, 112); font-weight: bold;&quot;&gt;Configure&lt;/span&gt;&lt;/p&gt;&lt;p style=&quot;margin:0px;margin-left:4px;&quot;&gt;&lt;span style=&quot;color: rgb(25, 25, 112); font-weight: bold;&quot;&gt;PostConfigure&lt;/span&gt;&lt;span style=&quot;color: rgb(25, 25, 112); font-weight: bold;&quot;&gt;&lt;/span&gt;&lt;/p&gt;&lt;p style=&quot;margin:0px;margin-left:4px;&quot;&gt;&lt;span style=&quot;color: rgb(25, 25, 112); font-weight: bold;&quot;&gt;Validate&lt;/span&gt;&lt;span style=&quot;background-color: transparent; color: light-dark(rgb(0, 0, 0), rgb(255, 255, 255));&quot;&gt;&lt;/span&gt;&lt;/p&gt;&lt;p style=&quot;margin:0px;margin-left:4px;&quot;&gt;&lt;span style=&quot;background-color: transparent; color: light-dark(rgb(0, 0, 0), rgb(255, 255, 255));&quot;&gt;&lt;br&gt;&lt;/span&gt;&lt;/p&gt;" style="verticalAlign=top;align=left;overflow=fill;html=1;whiteSpace=wrap;" vertex="1" parent="1">
          <mxGeometry x="1320" y="400" width="230" height="130" as="geometry" />
        </mxCell>
        <mxCell id="h_6TPCCMnjTKN2K01A-q-13" value="&lt;p style=&quot;margin:0px;margin-top:4px;text-align:center;&quot;&gt;&lt;span style=&quot;background-color: transparent; text-align: left; color: rgb(0, 64, 133);&quot;&gt;ConfigureNamedOptions&lt;/span&gt;&lt;span style=&quot;background-color: transparent; color: light-dark(rgb(0, 0, 0), rgb(255, 255, 255)); text-align: left;&quot;&gt;&amp;lt;TOptions&amp;gt;&lt;/span&gt;&lt;/p&gt;&lt;hr size=&quot;1&quot; style=&quot;border-style:solid;&quot;&gt;&lt;p style=&quot;margin:0px;margin-left:4px;&quot;&gt;Name:&amp;nbsp;&lt;span style=&quot;background-color: transparent; color: rgb(255, 0, 0);&quot;&gt;string&lt;/span&gt;&lt;span style=&quot;background-color: transparent; color: light-dark(rgb(0, 0, 0), rgb(255, 255, 255));&quot;&gt;?&lt;/span&gt;&lt;/p&gt;&lt;p style=&quot;margin:0px;margin-left:4px;&quot;&gt;Action:&amp;nbsp;&lt;span style=&quot;background-color: transparent; color: light-dark(rgb(0, 0, 0), rgb(255, 255, 255));&quot;&gt;&lt;/span&gt;&lt;span style=&quot;background-color: transparent; color: rgb(0, 64, 133);&quot;&gt;Action&lt;/span&gt;&lt;span style=&quot;background-color: transparent; color: light-dark(rgb(0, 0, 0), rgb(255, 255, 255));&quot;&gt;&amp;lt;TOptions&amp;gt;?&lt;/span&gt;&lt;/p&gt;&lt;p style=&quot;margin:0px;margin-left:4px;&quot;&gt;&lt;span style=&quot;background-color: transparent; color: light-dark(rgb(0, 0, 0), rgb(255, 255, 255));&quot;&gt;&lt;br&gt;&lt;/span&gt;&lt;/p&gt;&lt;p style=&quot;margin:0px;margin-left:4px;&quot;&gt;&lt;span style=&quot;color: rgb(0, 64, 133);&quot;&gt;IConfigureNamedOptions.&lt;/span&gt;&lt;span style=&quot;color: rgb(25, 25, 112); font-weight: 700; background-color: transparent;&quot;&gt;Configure()&lt;/span&gt;&lt;/p&gt;&lt;p style=&quot;margin:0px;margin-left:4px;&quot;&gt;&lt;span style=&quot;color: rgb(25, 25, 112); font-weight: 700; background-color: transparent;&quot;&gt;&lt;span style=&quot;color: rgb(0, 64, 133); font-weight: 400;&quot;&gt;IConfigureOptions.&lt;/span&gt;&lt;/span&gt;&lt;span style=&quot;color: rgb(25, 25, 112); font-weight: 700; background-color: transparent;&quot;&gt;Configure()&lt;/span&gt;&lt;/p&gt;&lt;p style=&quot;margin:0px;margin-left:4px;&quot;&gt;&lt;span style=&quot;background-color: transparent; color: light-dark(rgb(0, 0, 0), rgb(255, 255, 255));&quot;&gt;&lt;br&gt;&lt;/span&gt;&lt;/p&gt;&lt;p style=&quot;margin:0px;margin-left:4px;&quot;&gt;&lt;span style=&quot;background-color: transparent; color: light-dark(rgb(0, 0, 0), rgb(255, 255, 255));&quot;&gt;&lt;br&gt;&lt;/span&gt;&lt;/p&gt;" style="verticalAlign=top;align=left;overflow=fill;html=1;whiteSpace=wrap;" vertex="1" parent="1">
          <mxGeometry x="80" y="360" width="230" height="120" as="geometry" />
        </mxCell>
        <mxCell id="h_6TPCCMnjTKN2K01A-q-14" value="" style="endArrow=block;dashed=1;endFill=0;endSize=12;html=1;rounded=0;entryX=0.5;entryY=1;entryDx=0;entryDy=0;" edge="1" parent="1" source="h_6TPCCMnjTKN2K01A-q-13" target="U1-uT79BPtRjiYRfhZJT-1">
          <mxGeometry width="160" relative="1" as="geometry">
            <mxPoint x="220" y="270" as="sourcePoint" />
            <mxPoint x="380" y="270" as="targetPoint" />
          </mxGeometry>
        </mxCell>
        <mxCell id="h_6TPCCMnjTKN2K01A-q-15" value="" style="endArrow=block;dashed=1;endFill=0;endSize=12;html=1;rounded=0;entryX=0.5;entryY=1;entryDx=0;entryDy=0;exitX=0.75;exitY=0;exitDx=0;exitDy=0;" edge="1" parent="1" source="h_6TPCCMnjTKN2K01A-q-13" target="h_6TPCCMnjTKN2K01A-q-1">
          <mxGeometry width="160" relative="1" as="geometry">
            <mxPoint x="410" y="390" as="sourcePoint" />
            <mxPoint x="389" y="160" as="targetPoint" />
          </mxGeometry>
        </mxCell>
      </root>
    </mxGraphModel>
  </diagram>
</mxfile>
